<svg xmlns="http://www.w3.org/2000/svg" viewBox="0 0 229.85 51.97"><defs><style>.cls-1,.cls-2{font-size:33.37px;}.cls-1,.cls-2,.cls-4{fill:#1d1d1b;}.cls-1{font-family:PTSans-Bold, PT Sans;font-weight:700;}.cls-2{font-family:PTSans-Regular, PT Sans;}.cls-3{letter-spacing:0.41em;}.cls-5{fill:none;stroke:#030303;stroke-miterlimit:10;stroke-width:4px;}.cls-6{fill:#fff;}</style></defs><g id="Layer_2" data-name="Layer 2"><g id="Layer_1-2" data-name="Layer 1"><text class="cls-1" transform="translate(52 35.61)">Dasbor</text><text class="cls-2" transform="translate(153.51 35.61)">st<tspan class="cls-3" x="25.36" y="0">	</tspan><tspan x="48.05" y="0">re</tspan></text><path class="cls-4" d="M190.72,22.67c.07.2.19.24.4.17a36.83,36.83,0,0,1,3.56-1l.21,0c-.27.34-.51.64-.74,1l-1.56,2.11a.22.22,0,0,0,0,.33c.57.68,1.13,1.37,1.76,2,.21.22.43.42.65.62a.32.32,0,0,1,.12.18v0a13.38,13.38,0,0,1-1.65-.33c-.73-.17-1.45-.36-2.18-.55a.27.27,0,0,0-.35.13c-.57.89-1.13,1.79-1.65,2.71l-.1.16a14.73,14.73,0,0,1-.33-1.48,16.68,16.68,0,0,1-.27-2.11.29.29,0,0,0-.24-.3c-.79-.25-1.56-.57-2.33-.87h0a.4.4,0,0,1-.27-.14l-.23-.11c-.14-.05,0-.09,0-.13.88-.4,1.76-.81,2.66-1.14a.51.51,0,0,0,.4-.54,14.8,14.8,0,0,1,.47-3.1c0-.05,0-.19.13-.08s.1.1.14.16c.43.73.87,1.45,1.36,2.15A.19.19,0,0,1,190.72,22.67Z"/><path class="cls-4" d="M198.69,27.79a20,20,0,0,0,1-2.27l.37-.88c.17,1,.26,2,.33,3a3.11,3.11,0,0,0,1.27-1c.11,0,.05.08.05.13a6.86,6.86,0,0,1-1.17,2.7,1.47,1.47,0,0,0-.24.66,5.53,5.53,0,0,1-.52,1.78.79.79,0,0,1-.1.16,3.82,3.82,0,0,0-.67-.72c-.13-.1-.21-.12-.35,0a7.77,7.77,0,0,1-2.57,1.12s-.14.15-.16,0a19.39,19.39,0,0,0,1.4-2.08c.06-.1,0-.13-.07-.17a14.71,14.71,0,0,1-2-2.05c0-.08.06-.08.11-.09.35,0,.7.07,1.06.08s.43,0,.65,0a13.93,13.93,0,0,0,1.45-.09c.07,0,.09-.05.11-.09S198.61,27.83,198.69,27.79Z"/><path class="cls-4" d="M184.29,30.26a22,22,0,0,0,2.27,1.81.15.15,0,0,0,.19,0,13.34,13.34,0,0,0,2.2-1.68l.23-.17-.13.72c-.12.77-.23,1.54-.29,2.32a.24.24,0,0,0,.15.27c.59.32,1.18.62,1.79.9l.3.15a.88.88,0,0,1-.45.08,12.53,12.53,0,0,1-1.62.05c-.16,0-.19,0-.18.2a3.83,3.83,0,0,0,.34,1.39,1.6,1.6,0,0,1-.55-.16,5.48,5.48,0,0,1-1.91-1.46.51.51,0,0,0-.33-.19,7.76,7.76,0,0,1-2.59-.94,3.14,3.14,0,0,1-.65-.51l.4.05a4.29,4.29,0,0,0,1.67-.24c.16-.06.15-.11.08-.23a15.39,15.39,0,0,1-1.06-2.34l0-.11C184.21,30.17,184.23,30.25,184.29,30.26Z"/><path class="cls-4" d="M200,24.44a17.81,17.81,0,0,0-1.21-2.12l-.55-.81a.3.3,0,0,0-.29-.14,17.07,17.07,0,0,0-2.83.4H195c0-.08.08-.1.09-.16s.21-.3.32-.44a15.56,15.56,0,0,0,1-1.38c.14-.21.14-.25,0-.43a16.09,16.09,0,0,0-2.28-2c-.08-.05-.17-.09-.2-.19s0-.06.05-.05a11,11,0,0,1,3.36,1,2.1,2.1,0,0,0,.12-1.08c.11,0,.15.06.21.12A7.6,7.6,0,0,1,198.9,19a1.06,1.06,0,0,0,.26.34,7.49,7.49,0,0,1,1.9,2.43c0,.06.05.12.11.24a3.54,3.54,0,0,0-1.38-.55,2,2,0,0,0,.09.55,14.23,14.23,0,0,1,.18,2.35s0,.11,0,.12S200,24.47,200,24.44Z"/><path class="cls-4" d="M193.1,17.13a24,24,0,0,0-2.68.2.39.39,0,0,0-.34.22,7.52,7.52,0,0,0-1,2.35l0,.13c-.09,0-.11-.06-.14-.1a9.58,9.58,0,0,1-1.38-1.85c-.07-.12-.12-.16-.27-.12a16.35,16.35,0,0,0-2.25.82.31.31,0,0,1-.22.07,1.66,1.66,0,0,1,.39-.49A9.42,9.42,0,0,1,186.8,17c.12-.08.13-.14.06-.26a3.27,3.27,0,0,0-.61-.8,6.59,6.59,0,0,1,1.29-.19,13.08,13.08,0,0,1,1.4,0,.89.89,0,0,0,.36-.07,10.07,10.07,0,0,1,3.81-.58,5.86,5.86,0,0,0-1.8,1,15.65,15.65,0,0,1,2.4.91c0,.09-.06.05-.1.06A4.34,4.34,0,0,0,193.1,17.13Z"/><path class="cls-4" d="M185.3,25.2A17.68,17.68,0,0,0,183.42,27a.86.86,0,0,0-.21,1.05,20.19,20.19,0,0,0,.83,2c-.08,0-.14,0-.2-.06a14.7,14.7,0,0,1-1.71-1.16,6.42,6.42,0,0,0-.75,1.85,4.56,4.56,0,0,1-.36-1.14,6.34,6.34,0,0,1-.14-1.74.53.53,0,0,0-.1-.32,3.87,3.87,0,0,1-.53-.9.26.26,0,0,1,.11-.38,2.4,2.4,0,0,1,.61-.33.41.41,0,0,0,.3-.33,9.23,9.23,0,0,1,1-2.11l.1-.13c0,.61.1,1.18.18,1.74.06.37.05.38.42.31a20.8,20.8,0,0,1,2.22-.2S185.36,25,185.3,25.2Z"/><path class="cls-4" d="M194.21,34.5a10.57,10.57,0,0,0,1.58-1.88c.11-.09.11,0,.12.08a6.14,6.14,0,0,1,0,1.42c-.06.39-.06.38.32.3a8.47,8.47,0,0,0,1.89-.72c.11,0,0,.07,0,.11a9.86,9.86,0,0,1-2.65,1.71,10.33,10.33,0,0,1-4.21,1,.52.52,0,0,1-.17,0,6.71,6.71,0,0,0,1.57-.71,7.19,7.19,0,0,1-1.52-1.12l1.12.09c.48,0,1,0,1.45,0A.54.54,0,0,0,194.21,34.5Z"/><path class="cls-4" d="M184.64,19a14.1,14.1,0,0,0-1.88,1.57,1.75,1.75,0,0,0-.21.74,10.67,10.67,0,0,0-.18,1.91,7,7,0,0,1-.82-1.36,8.5,8.5,0,0,0-1.16,1.78s0,0,0,0a10.22,10.22,0,0,1,2.06-4.57A11.81,11.81,0,0,1,184,17.43c0-.05.08-.11.17-.06a11.13,11.13,0,0,0-.91,1.75,9.17,9.17,0,0,1,1-.16l.39,0C184.72,18.94,184.65,19,184.64,19Z"/><path class="cls-4" d="M198.11,33.81s0-.07,0-.11a.44.44,0,0,1,.18-.09C198.27,33.72,198.18,33.76,198.11,33.81Z"/><path class="cls-4" d="M201.71,26.79s0-.1-.05-.13,0-.07.05-.07,0,0,0,.06A.18.18,0,0,1,201.71,26.79Z"/><path class="cls-4" d="M21.6,15.24c0,.11.1.13.21.1.62-.21,1.25-.38,1.89-.53l.11,0-.39.51-.83,1.12a.12.12,0,0,0,0,.18c.3.36.6.73.93,1.06.11.12.23.22.34.33s.06.05.07.09v0c-.29,0-.58-.11-.87-.17l-1.16-.29c-.09,0-.13,0-.18.07-.31.47-.6.94-.88,1.43a.9.9,0,0,1-.05.09,8.1,8.1,0,0,1-.18-.79,8.36,8.36,0,0,1-.14-1.12.16.16,0,0,0-.13-.16c-.42-.13-.83-.3-1.24-.46h0a.22.22,0,0,1-.15-.08l-.11-.06c-.08,0,0,0,0-.07.47-.21.93-.43,1.41-.6a.27.27,0,0,0,.21-.29A7.66,7.66,0,0,1,20.7,14s0-.1.07,0,.05.05.07.08c.23.39.47.77.73,1.14C21.59,15.18,21.61,15.21,21.6,15.24Z"/><path class="cls-4" d="M25.83,18a11.69,11.69,0,0,0,.53-1.21l.19-.47a14.42,14.42,0,0,1,.18,1.58,1.63,1.63,0,0,0,.68-.51c.05,0,0,.05,0,.07a3.78,3.78,0,0,1-.62,1.44.75.75,0,0,0-.13.35,3.16,3.16,0,0,1-.27.94s0,.05-.06.09a2.21,2.21,0,0,0-.35-.39.14.14,0,0,0-.19,0,4,4,0,0,1-1.36.6s-.08.07-.09,0a9.19,9.19,0,0,0,.74-1.1c0-.06,0-.07,0-.09A7.49,7.49,0,0,1,24,18.15s0,0,.06,0a5.27,5.27,0,0,0,.56,0l.35,0a6.78,6.78,0,0,0,.77-.05s0,0,.05-.05S25.79,18,25.83,18Z"/><path class="cls-4" d="M18.19,19.28a11.13,11.13,0,0,0,1.2.95s.07,0,.1,0a7.22,7.22,0,0,0,1.17-.89l.12-.09c0,.14-.05.27-.07.39-.06.4-.12.81-.15,1.23a.11.11,0,0,0,.08.14c.31.17.62.33.95.48l.16.08a.41.41,0,0,1-.24,0,8.33,8.33,0,0,1-.86,0c-.09,0-.1,0-.1.1a2.17,2.17,0,0,0,.18.74.89.89,0,0,1-.29-.09,2.84,2.84,0,0,1-1-.77.25.25,0,0,0-.18-.1,4,4,0,0,1-1.37-.5,1.39,1.39,0,0,1-.34-.27l.2,0a2.43,2.43,0,0,0,.89-.13c.09,0,.08-.06.05-.12a8.28,8.28,0,0,1-.57-1.25.43.43,0,0,1,0-.05S18.15,19.27,18.19,19.28Z"/><path class="cls-4" d="M26.5,16.19a8.47,8.47,0,0,0-.65-1.13l-.29-.43a.13.13,0,0,0-.15-.07,8.34,8.34,0,0,0-1.5.21h-.06s0-.06,0-.09.11-.16.17-.23c.19-.24.38-.48.55-.74s.07-.13,0-.22a8.75,8.75,0,0,0-1.22-1.06s-.09,0-.1-.11,0,0,0,0a5.64,5.64,0,0,1,1.78.54,1.27,1.27,0,0,0,.07-.58c.05,0,.07,0,.1.06a4.1,4.1,0,0,1,.68,1,.62.62,0,0,0,.14.19,3.94,3.94,0,0,1,1,1.29,1.3,1.3,0,0,1,.06.12,1.9,1.9,0,0,0-.73-.29,1.35,1.35,0,0,0,.05.29,8.78,8.78,0,0,1,.1,1.25s0,.06,0,.06S26.51,16.2,26.5,16.19Z"/><path class="cls-4" d="M22.86,12.31a13.36,13.36,0,0,0-1.42.1.22.22,0,0,0-.18.12,4.12,4.12,0,0,0-.51,1.25s0,0,0,.06-.06,0-.07-.05a5,5,0,0,1-.73-1c0-.07-.07-.09-.15-.06a9,9,0,0,0-1.19.44s-.07,0-.12,0a1,1,0,0,1,.21-.26,4.89,4.89,0,0,1,.84-.73c.06,0,.07-.07,0-.13a1.85,1.85,0,0,0-.32-.43,3.29,3.29,0,0,1,.68-.1,6.06,6.06,0,0,1,.74,0,.58.58,0,0,0,.19,0,5.18,5.18,0,0,1,2-.31,3,3,0,0,0-.95.56,7.4,7.4,0,0,1,1.27.48c0,.05,0,0-.05,0A2.44,2.44,0,0,0,22.86,12.31Z"/><path class="cls-4" d="M18.72,16.59a9,9,0,0,0-1,.95.47.47,0,0,0-.11.56c.14.35.27.71.44,1a.12.12,0,0,1-.1,0A8.1,8.1,0,0,1,17,18.5a3.54,3.54,0,0,0-.4,1,2.32,2.32,0,0,1-.19-.6,3.66,3.66,0,0,1-.08-.93.23.23,0,0,0-.05-.17,2.43,2.43,0,0,1-.28-.47.14.14,0,0,1,.06-.2,1.32,1.32,0,0,1,.33-.18.22.22,0,0,0,.15-.18,5.14,5.14,0,0,1,.53-1.11l.05-.07c0,.32.05.62.1.92s0,.2.22.16a11.74,11.74,0,0,1,1.18-.1S18.76,16.5,18.72,16.59Z"/><path class="cls-4" d="M23.45,21.52a5.65,5.65,0,0,0,.84-1c.06-.05.06,0,.06,0a3.14,3.14,0,0,1,0,.75c0,.21,0,.21.17.16a4.75,4.75,0,0,0,1-.38c.05,0,0,0,0,.06a5.65,5.65,0,0,1-3.64,1.41h-.09a3.4,3.4,0,0,0,.83-.37,3.89,3.89,0,0,1-.8-.6l.59.05c.26,0,.51,0,.77,0A.29.29,0,0,0,23.45,21.52Z"/><path class="cls-4" d="M18.37,13.31a7.91,7.91,0,0,0-1,.83.93.93,0,0,0-.12.4,6.4,6.4,0,0,0-.1,1,4.42,4.42,0,0,1-.43-.72,4.32,4.32,0,0,0-.61.94s0,0,0,0a5.54,5.54,0,0,1,1.1-2.43,7.3,7.3,0,0,1,.81-.86s.05-.05.09,0a7.41,7.41,0,0,0-.48.93c.19,0,.37-.07.55-.08h.21C18.42,13.27,18.38,13.29,18.37,13.31Z"/><path class="cls-4" d="M25.52,21.16s0,0,0-.06a.19.19,0,0,1,.09-.05C25.6,21.11,25.56,21.13,25.52,21.16Z"/><path class="cls-4" d="M27.43,17.43s0-.05,0-.07,0,0,0,0,0,0,0,0A.08.08,0,0,1,27.43,17.43Z"/><rect class="cls-5" x="2" y="2" width="39.47" height="39.47" rx="11.3"/><text class="cls-1" transform="translate(8.39 42.86)">M</text><rect class="cls-6" x="14.73" y="39.24" width="13.78" height="4.25"/></g></g></svg>