<svg xmlns="http://www.w3.org/2000/svg" viewBox="0 0 41 49.14"><defs><style>.cls-1{fill:#fff;}.cls-2{fill:#030303;}.cls-3{font-size:33.48px;font-family:PTSans-Bold, PT Sans;font-weight:700;}.cls-3,.cls-4{fill:#1d1d1b;}</style></defs><g id="Layer_2" data-name="Layer 2"><g id="Layer_1-2" data-name="Layer 1"><rect class="cls-1" x="2.08" y="2.08" width="36.84" height="36.84" rx="9.66"/><path class="cls-2" d="M29.26,4.16a7.59,7.59,0,0,1,7.58,7.58V29.26a7.59,7.59,0,0,1-7.58,7.58H11.74a7.59,7.59,0,0,1-7.58-7.58V11.74a7.59,7.59,0,0,1,7.58-7.58H29.26m0-4.16H11.74A11.73,11.73,0,0,0,0,11.74V29.26A11.73,11.73,0,0,0,11.74,41H29.26A11.73,11.73,0,0,0,41,29.26V11.74A11.73,11.73,0,0,0,29.26,0Z"/><text class="cls-3" transform="translate(7.11 40)">M</text><path class="cls-4" d="M20.36,13.29c0,.11.1.13.22.09.62-.21,1.25-.38,1.89-.53h.11c-.14.18-.27.34-.39.51l-.83,1.12c-.06.07-.05.11,0,.18.3.36.6.73.93,1.07l.35.32a.33.33,0,0,1,.06.1h0a6.51,6.51,0,0,1-.88-.17l-1.16-.29a.14.14,0,0,0-.19.07c-.3.47-.6,1-.88,1.44l-.05.08a8.1,8.1,0,0,1-.18-.79,8.36,8.36,0,0,1-.14-1.12.16.16,0,0,0-.13-.16c-.42-.13-.83-.3-1.24-.46h0a.16.16,0,0,1-.14-.07l-.12-.06c-.08,0,0,0,0-.07.47-.21.94-.43,1.42-.6a.28.28,0,0,0,.21-.29A7.65,7.65,0,0,1,19.46,12s0-.11.07,0,0,.06.07.09c.24.39.47.77.73,1.14A.12.12,0,0,1,20.36,13.29Z"/><path class="cls-4" d="M24.61,16a10.82,10.82,0,0,0,.53-1.21l.19-.47a14.15,14.15,0,0,1,.18,1.58,1.63,1.63,0,0,0,.68-.51s0,.05,0,.07a3.57,3.57,0,0,1-.62,1.44.93.93,0,0,0-.13.35,2.87,2.87,0,0,1-.27.95.36.36,0,0,0-.05.09,2.73,2.73,0,0,0-.36-.39.14.14,0,0,0-.19,0,4.09,4.09,0,0,1-1.37.6s-.08.08-.09,0a9.72,9.72,0,0,0,.75-1.1c0-.06,0-.07,0-.1a7.55,7.55,0,0,1-1.1-1.09s0,0,.06-.05l.57.05h.34a6.79,6.79,0,0,0,.78,0,.08.08,0,0,0,.05-.05S24.56,16,24.61,16Z"/><path class="cls-4" d="M16.94,17.33a11.08,11.08,0,0,0,1.21,1,.07.07,0,0,0,.1,0,7.22,7.22,0,0,0,1.17-.89l.12-.09c0,.14,0,.26-.06.39a12.15,12.15,0,0,0-.16,1.23c0,.07,0,.11.08.14.31.17.63.34,1,.48l.16.08a.49.49,0,0,1-.24.05,8.23,8.23,0,0,1-.86,0c-.09,0-.1,0-.09.11a2,2,0,0,0,.17.74.89.89,0,0,1-.29-.09,2.87,2.87,0,0,1-1-.78.37.37,0,0,0-.17-.1,3.76,3.76,0,0,1-1.38-.5,1.39,1.39,0,0,1-.34-.27l.21,0a2.27,2.27,0,0,0,.89-.13c.08,0,.08-.06,0-.12a8.23,8.23,0,0,1-.56-1.25.11.11,0,0,1,0-.06S16.91,17.33,16.94,17.33Z"/><path class="cls-4" d="M25.28,14.23a8.36,8.36,0,0,0-.65-1.12c-.09-.15-.2-.29-.29-.44a.15.15,0,0,0-.15-.07,8.58,8.58,0,0,0-1.51.21h-.06c0-.05,0-.06.05-.09s.11-.16.17-.23a7.88,7.88,0,0,0,.55-.74c.08-.11.08-.13,0-.23a7.74,7.74,0,0,0-1.22-1.06s-.09-.05-.1-.1a0,0,0,0,1,0,0,6,6,0,0,1,1.79.54,1.15,1.15,0,0,0,.06-.58c.06,0,.08,0,.11.07a3.91,3.91,0,0,1,.68,1,.49.49,0,0,0,.14.18,4.14,4.14,0,0,1,1,1.3,1.29,1.29,0,0,0,.06.12,2.12,2.12,0,0,0-.74-.29,1.35,1.35,0,0,0,0,.29,7.64,7.64,0,0,1,.1,1.26s0,.06,0,.06S25.29,14.25,25.28,14.23Z"/><path class="cls-4" d="M21.63,10.34a13.74,13.74,0,0,0-1.43.1.25.25,0,0,0-.18.12,4.07,4.07,0,0,0-.51,1.26.14.14,0,0,1,0,.06s0,0-.07-.05a4.78,4.78,0,0,1-.73-1,.11.11,0,0,0-.15-.06,8.63,8.63,0,0,0-1.2.44.16.16,0,0,1-.12,0,1.09,1.09,0,0,1,.21-.26,4.9,4.9,0,0,1,.85-.73c.06,0,.06-.08,0-.14A1.65,1.65,0,0,0,18,9.7a4.25,4.25,0,0,1,.69-.1,6.06,6.06,0,0,1,.74,0,.71.71,0,0,0,.2,0,5.15,5.15,0,0,1,2-.31,3.35,3.35,0,0,0-1,.56A7.21,7.21,0,0,1,22,10.3s0,0-.05,0A2.44,2.44,0,0,0,21.63,10.34Z"/><path class="cls-4" d="M17.47,14.64a11.15,11.15,0,0,0-1,.95.47.47,0,0,0-.11.56c.14.36.28.71.44,1.06,0,0-.07,0-.1,0a7,7,0,0,1-.91-.62,3.74,3.74,0,0,0-.4,1,2.38,2.38,0,0,1-.19-.61,3.54,3.54,0,0,1-.08-.92.25.25,0,0,0,0-.17,1.94,1.94,0,0,1-.28-.48.13.13,0,0,1,.06-.2,1.26,1.26,0,0,1,.32-.18.23.23,0,0,0,.16-.18,4.6,4.6,0,0,1,.53-1.12.68.68,0,0,0,.05-.07c0,.32.05.63.1.93s0,.2.22.16a9.39,9.39,0,0,1,1.18-.1S17.51,14.54,17.47,14.64Z"/><path class="cls-4" d="M22.22,19.59a5.71,5.71,0,0,0,.84-1c.06-.05.06,0,.06,0a3.14,3.14,0,0,1,0,.75c0,.22,0,.21.16.16a4.36,4.36,0,0,0,1-.37c.06,0,0,0,0,0a5.16,5.16,0,0,1-1.41.91,5.43,5.43,0,0,1-2.24.51h-.1a3.34,3.34,0,0,0,.84-.38,3.57,3.57,0,0,1-.81-.59l.6.05c.25,0,.51,0,.77,0A.26.26,0,0,0,22.22,19.59Z"/><path class="cls-4" d="M17.13,11.35a6.68,6.68,0,0,0-1,.83.93.93,0,0,0-.12.4,6.4,6.4,0,0,0-.1,1,4,4,0,0,1-.43-.72,4.57,4.57,0,0,0-.62,1s0,0,0,0a5.42,5.42,0,0,1,1.1-2.44,6.05,6.05,0,0,1,.82-.86s0-.06.09,0a5.87,5.87,0,0,0-.49.93l.55-.09h.21C17.17,11.3,17.13,11.33,17.13,11.35Z"/><path class="cls-4" d="M24.3,19.22s0,0,0,0a.17.17,0,0,1,.1-.06A.15.15,0,0,1,24.3,19.22Z"/><path class="cls-4" d="M26.21,15.48s0-.05,0-.07,0,0,0,0,0,0,0,0A.08.08,0,0,1,26.21,15.48Z"/><rect class="cls-1" x="13.47" y="36.47" width="13.83" height="4.64"/></g></g></svg>