<svg xmlns="http://www.w3.org/2000/svg" viewBox="0 0 311.81 99.21"><defs><style>.cls-1,.cls-3{font-size:33.37px;}.cls-1,.cls-3,.cls-5,.cls-8{fill:#1d1d1b;}.cls-1{font-family:PTSans-Bold, PT Sans;font-weight:700;}.cls-2{letter-spacing:-0.03em;}.cls-3{font-family:PTSans-Regular, PT Sans;}.cls-4{letter-spacing:0.41em;}.cls-6{fill:none;stroke:#030303;stroke-miterlimit:10;stroke-width:4px;}.cls-7{fill:#fff;}.cls-8{opacity:0;}</style></defs><g id="Layer_2" data-name="Layer 2"><g id="Layer_1-2" data-name="Layer 1"><text class="cls-1" transform="translate(85.15 61.23)">Mumta<tspan class="cls-2" x="99.69" y="0">z</tspan></text><text class="cls-3" transform="translate(202.33 61.23)">st<tspan class="cls-4" x="25.36" y="0">	</tspan><tspan x="48.05" y="0">re</tspan></text><path class="cls-5" d="M239.54,48.29c.07.2.19.24.4.17,1.17-.39,2.36-.71,3.56-1l.21,0c-.27.34-.51.65-.74,1l-1.56,2.11a.22.22,0,0,0,0,.33c.57.68,1.13,1.37,1.76,2l.65.62a.27.27,0,0,1,.12.17v0a13.38,13.38,0,0,1-1.65-.33c-.73-.17-1.45-.35-2.18-.54a.25.25,0,0,0-.35.13c-.57.89-1.13,1.78-1.65,2.7a.79.79,0,0,1-.1.16,14.14,14.14,0,0,1-.33-1.48,16.68,16.68,0,0,1-.27-2.11.3.3,0,0,0-.24-.3c-.79-.25-1.56-.57-2.33-.86h0a.34.34,0,0,1-.27-.13,2.53,2.53,0,0,0-.23-.12c-.14,0,0-.09,0-.13.88-.39,1.76-.81,2.66-1.14a.51.51,0,0,0,.4-.54,14.8,14.8,0,0,1,.47-3.1c0-.05,0-.19.13-.08s.1.1.14.16c.43.73.87,1.45,1.36,2.15A.2.2,0,0,1,239.54,48.29Z"/><path class="cls-5" d="M247.51,53.42a21.73,21.73,0,0,0,1-2.27l.37-.89c.17,1,.26,2,.33,3a3.11,3.11,0,0,0,1.27-1c.11,0,.05.08.05.13a6.91,6.91,0,0,1-1.17,2.71,1.39,1.39,0,0,0-.24.65,5.53,5.53,0,0,1-.52,1.78.82.82,0,0,1-.1.17,3.59,3.59,0,0,0-.67-.73.25.25,0,0,0-.35,0,7.57,7.57,0,0,1-2.57,1.12s-.15.15-.16,0a19.39,19.39,0,0,0,1.4-2.08c.06-.1,0-.12-.07-.17A14.71,14.71,0,0,1,244,53.76c0-.08.06-.08.11-.09.35,0,.7.07,1.06.08s.43,0,.65,0a13.93,13.93,0,0,0,1.45-.09c.07,0,.09,0,.11-.09S247.43,53.45,247.51,53.42Z"/><path class="cls-5" d="M233.11,55.88a20.7,20.7,0,0,0,2.27,1.81.15.15,0,0,0,.19,0,12.81,12.81,0,0,0,2.2-1.68l.23-.17c-.05.27-.09.5-.13.73-.13.76-.23,1.53-.29,2.31a.24.24,0,0,0,.15.27c.59.32,1.18.63,1.79.91l.3.15a1,1,0,0,1-.45.08c-.54,0-1.08.06-1.62.05-.16,0-.19,0-.18.19a3.78,3.78,0,0,0,.34,1.39,1.6,1.6,0,0,1-.55-.16,5.48,5.48,0,0,1-1.91-1.46.56.56,0,0,0-.33-.19,7.34,7.34,0,0,1-2.59-.94,3.44,3.44,0,0,1-.65-.5l.4,0a4.29,4.29,0,0,0,1.67-.24c.16,0,.15-.11.08-.23A15.39,15.39,0,0,1,233,55.9l0-.11C233,55.79,233.05,55.87,233.11,55.88Z"/><path class="cls-5" d="M248.77,50.06A16.94,16.94,0,0,0,247.56,48c-.18-.28-.37-.54-.55-.82a.3.3,0,0,0-.29-.14,18.19,18.19,0,0,0-2.83.4l-.11,0c0-.09.08-.11.09-.17s.21-.3.32-.43a15.71,15.71,0,0,0,1-1.39c.14-.21.14-.25,0-.43a15,15,0,0,0-2.29-2c-.07-.06-.16-.09-.19-.2s0-.06,0,0a10.45,10.45,0,0,1,3.36,1,2.13,2.13,0,0,0,.12-1.09c.11,0,.15.07.21.12a7.8,7.8,0,0,1,1.27,1.85A1.06,1.06,0,0,0,248,45a7.49,7.49,0,0,1,1.9,2.43c0,.06.05.12.11.24a3.54,3.54,0,0,0-1.38-.55,2.52,2.52,0,0,0,.08.55,13.34,13.34,0,0,1,.19,2.36s0,.1,0,.12S248.8,50.09,248.77,50.06Z"/><path class="cls-5" d="M241.92,42.76a24,24,0,0,0-2.68.19.43.43,0,0,0-.34.22,7.48,7.48,0,0,0-1,2.36l0,.12c-.09,0-.11-.06-.14-.09a9.65,9.65,0,0,1-1.38-1.86c-.07-.12-.12-.16-.27-.12a16.4,16.4,0,0,0-2.25.83.36.36,0,0,1-.23.06A2,2,0,0,1,234,44a9.42,9.42,0,0,1,1.58-1.37c.12-.08.13-.14.06-.26a3.27,3.27,0,0,0-.61-.8,5.89,5.89,0,0,1,1.29-.18,10.9,10.9,0,0,1,1.4,0,.89.89,0,0,0,.36-.07,10.07,10.07,0,0,1,3.81-.58,6.07,6.07,0,0,0-1.8,1.05,15.65,15.65,0,0,1,2.4.91c0,.09-.06.06-.1.06A2.9,2.9,0,0,0,241.92,42.76Z"/><path class="cls-5" d="M234.12,50.82a17.68,17.68,0,0,0-1.88,1.79.86.86,0,0,0-.21,1,20.36,20.36,0,0,0,.83,2c-.08,0-.14,0-.2-.07A14.7,14.7,0,0,1,231,54.42a6.6,6.6,0,0,0-.75,1.86,4.76,4.76,0,0,1-.36-1.15,6.34,6.34,0,0,1-.14-1.74.53.53,0,0,0-.1-.32,3.87,3.87,0,0,1-.53-.9.26.26,0,0,1,.11-.38,2.76,2.76,0,0,1,.61-.33.41.41,0,0,0,.3-.33,9.16,9.16,0,0,1,1-2.1l.1-.14c0,.61.1,1.18.18,1.74.06.38,0,.38.42.32a16.65,16.65,0,0,1,2.22-.2S234.18,50.65,234.12,50.82Z"/><path class="cls-5" d="M243,60.12a10.87,10.87,0,0,0,1.58-1.87c.11-.1.11,0,.12.07a6.13,6.13,0,0,1,0,1.42c-.06.39-.06.39.32.3a9,9,0,0,0,1.89-.71c.11,0,0,.06,0,.1a9.86,9.86,0,0,1-2.65,1.71,10.36,10.36,0,0,1-4.21,1,.52.52,0,0,1-.17,0,6.32,6.32,0,0,0,1.57-.71A7.5,7.5,0,0,1,240,60.26l1.12.08c.48,0,1,0,1.45,0A.57.57,0,0,0,243,60.12Z"/><path class="cls-5" d="M233.46,44.64a13.45,13.45,0,0,0-1.88,1.58,1.67,1.67,0,0,0-.21.73,11.77,11.77,0,0,0-.19,1.91,7.51,7.51,0,0,1-.81-1.36,8.5,8.5,0,0,0-1.16,1.78s-.05,0,0,0a10.2,10.2,0,0,1,2.06-4.58,12.41,12.41,0,0,1,1.54-1.62s.08-.11.17-.06a11.58,11.58,0,0,0-.91,1.75c.35-.06.68-.13,1-.16l.39,0C233.54,44.56,233.47,44.61,233.46,44.64Z"/><path class="cls-5" d="M246.93,59.43s0-.07,0-.1a.35.35,0,0,1,.18-.1C247.09,59.34,247,59.38,246.93,59.43Z"/><path class="cls-5" d="M250.53,52.41s0-.1-.05-.13,0-.07.05-.07,0,0,0,.07A.17.17,0,0,1,250.53,52.41Z"/><path class="cls-5" d="M54.75,40.87c0,.11.09.13.21.09.62-.21,1.25-.38,1.88-.53H57l-.39.51-.83,1.12a.12.12,0,0,0,0,.17c.3.36.6.73.93,1.07l.35.32a.15.15,0,0,1,.06.1h0a6.51,6.51,0,0,1-.88-.17l-1.15-.29a.15.15,0,0,0-.19.07c-.3.47-.6,1-.87,1.43l-.06.09a5.89,5.89,0,0,1-.17-.79A10.56,10.56,0,0,1,53.61,43a.16.16,0,0,0-.12-.17c-.42-.13-.83-.3-1.24-.46h0a.23.23,0,0,1-.14-.07L52,42.2c-.08,0,0-.05,0-.08.47-.2.94-.42,1.42-.6a.25.25,0,0,0,.2-.28,8.34,8.34,0,0,1,.26-1.65s0-.1.06,0,.06.05.08.08c.23.39.46.77.72,1.14A.18.18,0,0,1,54.75,40.87Z"/><path class="cls-5" d="M59,43.59a10.07,10.07,0,0,0,.53-1.21l.2-.47a14.38,14.38,0,0,1,.17,1.58,1.5,1.5,0,0,0,.68-.51c.05,0,0,.05,0,.07A3.69,3.69,0,0,1,60,44.49a.76.76,0,0,0-.14.35,2.82,2.82,0,0,1-.27.94.9.9,0,0,1,0,.09,1.64,1.64,0,0,0-.36-.38.11.11,0,0,0-.18,0,4.28,4.28,0,0,1-1.37.59s-.07.08-.08,0a9.19,9.19,0,0,0,.74-1.1c0-.05,0-.07,0-.09a8,8,0,0,1-1.08-1.09s0,0,0-.05l.57.05h.34a6.51,6.51,0,0,0,.77,0,.08.08,0,0,0,.06-.05S58.93,43.61,59,43.59Z"/><path class="cls-5" d="M51.33,44.9a12.43,12.43,0,0,0,1.21,1,.08.08,0,0,0,.1,0A7.09,7.09,0,0,0,53.8,45l.13-.1c0,.15,0,.27-.07.39-.07.41-.13.82-.16,1.23a.13.13,0,0,0,.08.14c.31.17.63.33.95.48l.16.08a.4.4,0,0,1-.24,0,6.13,6.13,0,0,1-.86,0c-.08,0-.1,0-.09.1a1.92,1.92,0,0,0,.18.74.89.89,0,0,1-.29-.08,3,3,0,0,1-1-.78.25.25,0,0,0-.17-.1,4,4,0,0,1-1.38-.5,1.91,1.91,0,0,1-.34-.27l.21,0a2.24,2.24,0,0,0,.89-.13c.08,0,.08-.06,0-.12a8.12,8.12,0,0,1-.56-1.24s0,0,0-.06S51.3,44.89,51.33,44.9Z"/><path class="cls-5" d="M59.64,41.81A8.78,8.78,0,0,0,59,40.69c-.1-.15-.2-.29-.29-.44a.16.16,0,0,0-.16-.07,8.6,8.6,0,0,0-1.5.21h0s0-.06,0-.09.11-.16.17-.23c.2-.24.38-.48.55-.73s.08-.14,0-.23a8.13,8.13,0,0,0-1.21-1.06s-.09-.05-.11-.1,0,0,0,0a5.89,5.89,0,0,1,1.79.54,1.15,1.15,0,0,0,.06-.58c.06,0,.08,0,.11.07a4.15,4.15,0,0,1,.67,1,.62.62,0,0,0,.14.18,4,4,0,0,1,1,1.29l.06.12a2.15,2.15,0,0,0-.73-.29.92.92,0,0,0,0,.29,7.53,7.53,0,0,1,.1,1.25s0,.06,0,.07Z"/><path class="cls-5" d="M56,37.93a13.74,13.74,0,0,0-1.43.1.25.25,0,0,0-.18.12,4.39,4.39,0,0,0-.51,1.25s0,0,0,.07-.06,0-.08,0a5.06,5.06,0,0,1-.73-1c0-.06-.06-.08-.14-.06a8.63,8.63,0,0,0-1.2.44s-.07,0-.11,0a1,1,0,0,1,.2-.26,6.46,6.46,0,0,1,.84-.73c.06,0,.07-.07,0-.13a1.85,1.85,0,0,0-.32-.43,4.25,4.25,0,0,1,.69-.1,6.12,6.12,0,0,1,.74,0,.58.58,0,0,0,.19,0,5.31,5.31,0,0,1,2-.31,3.6,3.6,0,0,0-1,.56,7.51,7.51,0,0,1,1.28.48s0,0,0,0A2.44,2.44,0,0,0,56,37.93Z"/><path class="cls-5" d="M51.87,42.21a9,9,0,0,0-1,.95.46.46,0,0,0-.11.56,9.69,9.69,0,0,0,.44,1.05.13.13,0,0,1-.11,0,10.45,10.45,0,0,1-.91-.62,3.3,3.3,0,0,0-.39,1,3.1,3.1,0,0,1-.2-.61,4.08,4.08,0,0,1-.07-.92.25.25,0,0,0-.05-.17,1.94,1.94,0,0,1-.28-.48.13.13,0,0,1,.06-.2,1.26,1.26,0,0,1,.32-.18.25.25,0,0,0,.16-.17,4.6,4.6,0,0,1,.53-1.12.23.23,0,0,1,.05-.07c0,.32,0,.62.09.92s0,.2.23.17a9.24,9.24,0,0,1,1.18-.11S51.9,42.12,51.87,42.21Z"/><path class="cls-5" d="M56.59,47.14a5.31,5.31,0,0,0,.84-1c.06,0,.06,0,.06,0a3.14,3.14,0,0,1,0,.75c0,.21,0,.21.17.16a4,4,0,0,0,1-.38c.06,0,0,0,0,.06a5.67,5.67,0,0,1-1.41.91A5.55,5.55,0,0,1,55,48.2h-.1a3.51,3.51,0,0,0,.84-.38,3.91,3.91,0,0,1-.81-.59l.6,0a6.43,6.43,0,0,0,.76,0A.29.29,0,0,0,56.59,47.14Z"/><path class="cls-5" d="M51.52,38.93a7.29,7.29,0,0,0-1,.84.77.77,0,0,0-.11.39,5.4,5.4,0,0,0-.1,1,3.52,3.52,0,0,1-.43-.72,4.78,4.78,0,0,0-.62.94s0,0,0,0A5.44,5.44,0,0,1,50.33,39a6.08,6.08,0,0,1,.82-.86s0-.06.09,0a5,5,0,0,0-.48.92,5,5,0,0,1,.54-.08h.21C51.56,38.89,51.52,38.92,51.52,38.93Z"/><path class="cls-5" d="M58.67,46.78s0,0,0-.06a.19.19,0,0,1,.09,0C58.75,46.73,58.7,46.75,58.67,46.78Z"/><path class="cls-5" d="M60.57,43.05s0,0,0-.07,0,0,0,0,0,0,0,0S60.59,43,60.57,43.05Z"/><rect class="cls-6" x="35.15" y="27.62" width="39.47" height="39.47" rx="11.3"/><text class="cls-1" transform="translate(41.54 68.48)">M</text><rect class="cls-7" x="47.87" y="64.86" width="13.78" height="4.25"/><rect class="cls-8" width="311.81" height="99.21"/></g></g></svg>